<!--?xml version="1.0" encoding="utf-8"?-->
<!-- Generator: Adobe Illustrator 18.1.1, SVG Export Plug-In . SVG Version: 6.00 Build 0)  -->

<svg version="1.1" id="_x31_0" xmlns="http://www.w3.org/2000/svg" xmlns:xlink="http://www.w3.org/1999/xlink" x="0px" y="0px" viewBox="0 0 512 512" style="width: 256px; height: 256px; opacity: 1;" xml:space="preserve">
<style type="text/css">
	.st0{fill:#374149;}
</style>
<g>
	<path class="st0" d="M372.181,0H139.822C69.136,0,11.63,57.506,11.63,128.192v156.71c0,70.683,57.506,128.192,128.192,128.192
		h103.437l92.866,85.304c9.71,8.919,22.23,13.602,34.923,13.602c6.914,0,13.879-1.391,20.471-4.24
		c18.693-8.08,30.886-26.407,31.121-46.77l0.674-58.542c45.309-19.785,77.056-65.03,77.056-117.546v-156.71
		C500.37,57.506,442.864,0,372.181,0z M370.936,460.3l-107.572-98.813H139.822c-42.296,0-76.586-34.29-76.586-76.586v-156.71
		c0-42.296,34.29-76.586,76.586-76.586h232.359c42.296,0,76.582,34.29,76.582,76.586v156.71c0,42.296-34.286,76.586-76.582,76.586
		l-0.686,59.18L370.936,460.3z" style="fill: rgb(75, 75, 75);"></path>
	<path class="st0" d="M345.796,127.197h-179.59c-6.462,0-11.697,5.235-11.697,11.697c0,6.458,5.235,11.698,11.697,11.698h179.59
		c6.458,0,11.698-5.239,11.698-11.698C357.494,132.432,352.255,127.197,345.796,127.197z" style="fill: rgb(75, 75, 75);"></path>
	<path class="st0" d="M345.796,188.587h-179.59c-6.462,0-11.697,5.235-11.697,11.698c0,6.462,5.235,11.697,11.697,11.697h179.59
		c6.458,0,11.698-5.235,11.698-11.697C357.494,193.822,352.255,188.587,345.796,188.587z" style="fill: rgb(75, 75, 75);"></path>
	<path class="st0" d="M263.764,249.982h-97.557c-6.462,0-11.697,5.235-11.697,11.698c0,6.458,5.235,11.694,11.697,11.694h97.557
		c6.458,0,11.697-5.235,11.697-11.694C275.46,255.217,270.221,249.982,263.764,249.982z" style="fill: rgb(75, 75, 75);"></path>
</g>
</svg>
