<!--?xml version="1.0" encoding="utf-8"?-->
<!-- Generator: Adobe Illustrator 18.0.0, SVG Export Plug-In . SVG Version: 6.00 Build 0)  -->

<svg version="1.1" id="_x31_0" xmlns="http://www.w3.org/2000/svg" xmlns:xlink="http://www.w3.org/1999/xlink" x="0px" y="0px" viewBox="0 0 512 512" style="width: 256px; height: 256px; opacity: 1;" xml:space="preserve">
<style type="text/css">
	.st0{fill:#374149;}
</style>
<g>
	<path class="st0" d="M487.489,24.458c-29.117-29.113-73.182-32.589-99.866-8.531c-0.734,0.653-1.504,1.262-2.207,1.95l0.008,0.008
		c-0.039,0.039-0.082,0.07-0.122,0.109l20.699,20.691c3.734-3.734,8.234-6.351,13.168-7.898c0.039-0.011,0.074-0.019,0.11-0.031
		c2.445-0.754,4.996-1.254,7.613-1.488c0.023,0,0.051-0.004,0.074-0.008c13.266-1.16,28.246,4.317,39.827,15.894
		c18.543,18.543,21.446,45.816,6.462,60.793l20.698,20.694C520.344,100.25,517.446,54.411,487.489,24.458z" style="fill: rgb(75, 75, 75);"></path>
	<path class="st0" d="M52.194,341.526l-0.969,3.133c-0.973,0.77-1.989,1.617-2.969,2.558c-0.074,0.058-0.149,0.117-0.223,0.176
		l0.008,0.007c-0.039,0.039-0.078,0.066-0.117,0.106l1.824,1.824L0.003,512l162.615-49.796l1.824,1.824
		c1.078-1.082,2.051-2.164,2.902-3.25l3.078-1.023l318.051-318.051L370.244,23.474L52.194,341.526z M174.442,426.669
		c-1.777-8-5.808-15.773-11.882-22.41L364.319,202.5l17.207,17.206L246.527,354.705L174.442,426.669z M85.244,337.42
		l206.998-206.998l17.261,17.266L107.743,349.443c-5.836-5.344-12.511-8.992-19.426-11.046
		C87.295,338.068,86.283,337.686,85.244,337.42z M141.868,391.056c-2.039-0.683-4.102-1.168-6.195-1.554
		c-0.371-0.066-0.738-0.145-1.11-0.199c-2.05-0.325-4.094-0.493-6.164-0.512c-0.156-0.004-0.305-0.039-0.457-0.039
		c-1.551,0-3.11,0.082-4.813,0.102c1.25-11.16-2-22.492-8.941-32.058l202.212-202.212l40.965,40.968L155.157,397.763
		c-4.015-2.906-8.406-5.016-12.926-6.57C142.111,391.15,141.993,391.095,141.868,391.056z M105.923,388.646
		c-0.91,4.902,0.629,9.856,4.102,13.332c3.48,3.477,8.434,5.016,13.335,4.106c8.832-1.656,18.742,1.766,25.867,8.886
		c7.746,7.746,10.711,18.234,8.664,27.008l-96.464,31.05L38.92,450.52l31.054-96.46c8.77-2.05,19.258,0.914,27.003,8.661
		C104.158,369.9,107.521,379.755,105.923,388.646z M418.049,183.183l-21.77,21.766l-89.28-89.284l21.765-21.766l89.015,89.014
		L418.049,183.183z M335.659,87.005l37.207-37.206l89.28,89.284l-37.202,37.206L335.659,87.005z" style="fill: rgb(75, 75, 75);"></path>
</g>
</svg>
